<svg xmlns="http://www.w3.org/2000/svg" width="100" height="100" viewBox="0 0 100 100">
  <defs>
    <style>
      @media (prefers-color-scheme: light) {
        path {
          fill: #000;
        }
      }
      @media (prefers-color-scheme: dark) {
        path {
          fill: #fff;
        }
      }
    </style>
  </defs>
  <path d="M30.52,100a2.14,2.14,0,0,1-2.12-2.4l.17-1.31c1.06-8.51,41-8.45,39.82-17.67l2.37,19a2.14,2.14,0,0,1-2.12,2.4Z"></path>
  <path d="M30.43,81.41l2-16.43c1-7.12,33.32-7.08,32.41-14.39L66.72,65.3C67.76,73.58,31.41,73.52,30.43,81.41Z"></path>
  <path d="M55.67,30.27l-1.1-9.37a2.28,2.28,0,0,0-2.27-2H46.78a2.28,2.28,0,0,0-2.27,2l-1.08,9.36h-10V32a2.17,2.17,0,0,0,2.17,2.16h.71l-2,16.26c.85-6.67,29.73-6.62,29-12.85l-.42-3.41h.34A2.17,2.17,0,0,0,65.34,32V30.27Z"></path>
  <path d="M49.37.56s-3.76,4.86-14.46,8.7a2.23,2.23,0,0,0-1.46,2.08v1.14H65.29V11.34a2.21,2.21,0,0,0-1.44-2.08C53.26,5.42,49.37.56,49.37.56Z"></path>
</svg>