<svg id="logo" xmlns="http://www.w3.org/2000/svg" viewBox="0 0 625.88 615.33">
    <defs>
        <style>
            .cls-1{fill:#fdfdfd;}
        </style>
    </defs>
    <g>
        <path class="cls-1" d="M324 615.33L261.13 428H71.88l25.49-89h138.25L123.38 0h105.5l208.45 615.33H324z"/>
        <path class="cls-1" d="M71.37 339l-25.49 89H0l25.19-89h46.18z"/>
    </g>
    <g>
        <path class="cls-1" d="M801.88 370.5c0-82.5-72.35-169.5-169.5-169.5h-169.5l22.79 67H620c57 0 103 51 103 103 0 57-49 103-103 103h-64.25l19.72 58 72.42 215.16H732L658.39 537.8c77.29-12.97 143.49-82.22 143.49-167.3z" transform="translate(-176 -201)"/>
        <path class="cls-1" d="M565.76 573.73h-84.63L494.87 614h85.33l-14.44-40.27z"/>
    </g>
</svg>