<?xml version="1.0" encoding="UTF-8"?><svg id="Layer_1" xmlns="http://www.w3.org/2000/svg" viewBox="0 0 500 500"><path style="fill:#fdfdfd" id="Biking" d="M358.98,279.78c-15.11,0-30.81,5.32-43.91,15.12-2.1-2.65-3.38-4.28-3.38-4.28l.67-1.12s-15.74-16.28-15.74-19.46c-.25-2.74,5.73-23.38,6.96-23.38,3.08,.17,4.87-1.17,5.2-3.69,0-2.57-2.78-3.02-2.85-6.6,0,0,2.12-3.99,3.75-4.03,18.59-6.92,36.86-15.21,36.8-29.64,0-6.94-7.27-16.22-7.27-16.22,0,0,9.62-4.14,9.62-12.42,0-16.83-4.25-29.03-13.42-36.47,0-9.17-11.69-18.62-20.02-19.46,0,0,.56-2.8-1.57-4.7-2.13-1.9-10.43-4.78-10.43-4.78v-5.37s-7.13-2.35-14.26-2.35-8.18,2.14-13.46,2.14c-4.4,.01-7.93-4.4-13.38-5.12l.25-4.99c0-5.79-6.8-15.6-6.8-15.6,0,0,2.6-3.02,2.6-3.94s-5.62-10.23-27.52-10.23c-24.66-.25-28.36,16.25-39.09,29.45,1.09,.92,10.15,3.36,10.15,3.36l.08,4.45s6.38,3.1,7.21,5.62c0,2.29-2.52,1.76-2.27,5.62-.03,4.84,6.01,4.11,6.04,10.74,0,.75,1.54,.64,1.54,2.21s-.67,2.8-.67,2.8c0,0-6.71,6.15-7.49,9.17-.78,3.02-13.09,19.69-13.09,19.69,0,0,2.37,1.87,2.13,2.68-1.45,4.14-12.86,10.63-19.07,16.55s-15.27,17.34-19.3,21.36c-4.03,4.03-11.19,9.17-15.44,11.3-4.25,2.13-8,2.85-8,2.85-4.47,.39-8.61,2.8-8.61,8.61,0,4.47,6.96,8.56,6.96,8.56l-.08,1.01s-7.61-1.51-7.49,.22c.1,1.56,15.3,1.79,15.3,1.79,0,0,2.35,1.01,4.36,1.01s1.93-1.24,3.69-1.17c2.22,.08,2.1,3.02,4.87,3.02,3.98,.17,4.03-6.38,4.03-6.38,0,0,3.9-.54,7.13-.06,2.24,1.12,5.7,4.08,5.7,4.08,0,0,.25,1.68,1.09,2.43,.84,.76,3.44,.55,3.44,.55,0,0,3.31,5.41,5.45,5.75l-3.86,8.14,1.51,2.85-.42,1.68s-3.61,.25-4.11,3.44c0,2.1,1.26,2.6,1.26,3.78s-1.17,2.85-1.17,2.85l-3.94,8.47s-7.72-.59-9.06,0c-.48,.21-2.84,5.86-5.67,13.04-4.66-.87-9.52-1.35-14.61-1.35-35.79,0-74.94,29.75-74.94,78.52,0,39.37,32.22,74.94,73.38,74.94,50.11,0,76.96-41.39,76.96-77.13,0-26.54-13.96-52.93-37.93-66.65,2.69-7.04,4.13-11.62,4.04-12.71-.22-2.91-4.25-4.36-4.25-4.36l2.35-5.37,.13-.35,26.01,30.11s-.76,1.93-1.43,2.01c-2.57,.06-1.62-2.52-5.37-2.52-6.38,.39-4.03,5.03-4.03,5.03l22.4,27.68h9.65l-12.33-16.69,1.34-1.17s28.19,31.46,28.19,35.07c0,3.1-7.52,3.94-7.47,13.42,.06,10.15,6.43,7.63,6.21,14.79s-18.68,9.84-18.68,15.44c0,3.92,6.04,5.48,6.04,5.48l14.77,.22c1.34,3.02,12.42,2.35,16.78,2.35,3.69-.22,4.92-6.32,4.64-8.33,5.54-3.86,14.26-2.74,14.82-11.69,.17-5.87-3.64-6.26-3.13-16,.17-.17,2.8-.41,6.88-.66,3.29,36.71,34.18,68.46,73.07,68.46,50.11,0,76.96-41.39,76.96-77.13,0-38.31-29.08-76.34-75.39-76.34Zm-226.09,84.61c3.47,.11,1.68,2.52,6.66,2.35,5.31-.28,3.41-2.96,6.54-3.47,2.35-.62,2.94,.33,2.91,2.07-.11,1.17-2.91,7.66-10.57,7.66-6.82,0-8.72-4.7-8.67-5.98,0-1.73,.78-2.52,3.13-2.63Zm6.66-19.32c8.64-1.59,9.23,7.3,4.61,7.21-2.43,.17-1.51-1.26-4.45-1.17-3.02,.25-2.77,3.12-5.62,3.11-2.85,0-3.19-7.39,5.45-9.15Zm9.28-2.88c-1.79-1.01-3.8-1.9-6.6-2.01-.22-1.79,9.62-28.75,12.42-29.64,1.07-.34,5.48,3.02,5.59,4.14,.11,1.12-9.4,27.52-11.41,27.52Zm53.64,17.9c0,32.22-25.67,64.43-62.92,64.43s-62.58-29.87-62.58-63.76,24.66-64.93,63.42-64.93c3.1,0,6.1,.24,9.01,.65-3.72,9.82-7.02,18.91-7.02,19.29,0,.84,1.87,1.62,1.87,1.62l-9.23,23.41c-6.21,0-10.29,8.95-10.29,14.99,0,0-2.68,.28-2.68,3.8,0,3.3,1.65,3.69,1.65,3.69,0,6.49,4.61,14.26,14.09,14.26,13.59,0,17.48-7.21,18.71-15.77,0,0,3.58,.95,3.89-4.11,.42-4.45-2.82-4.73-2.82-4.73-.33-4.46-2.01-6.6-3.75-8.7,7.46-14.84,13.7-28.63,18.31-39.61,19.08,11.72,30.35,33.55,30.35,55.46Zm-41.35-73.68c1.19-3.39,3.58-7.75,7.63-6.27,4.85,1.72,1.83,5.77-.17,8.89-2.41-1-4.89-1.87-7.46-2.62Zm158.08,24.26c2.9-2.68,20.91,21.87,27.9,31.63,0,1.34-2.94,2.1-5.2,1.43-1.66-.49-25.08-30.45-22.7-33.05Zm45.35,42.2s-.5-6.8,1.43-6.88c2.52,0,6.71,3.86,6.71,9.98,0,9.48-6.96,14.43-13.31,15.35-4.14,.02-6.91-1.43-8-3.52,5.2-4.28,14.6-6.46,15.27-12.25-.01-2.49-2.1-2.68-2.1-2.68Zm-15.35,12.42c-2.35,.08-3.69-1.59-2.43-4.78,3.54-1.85,7.55-.98,7.47,.67,.67,1.43-2.68,4.03-5.03,4.11Zm-42.2-71.53c2.03-1.01,4.03,1.42,4.14,2.8,.11,1.38-1.22,1.9-2.07,1.9s-2.69-2.46-2.07-4.7Zm-2.35-6.66c0,.89-1.23,1.01-1.79,1.06-.56,.06-2.07-1.9-2.29-4.42,0,0,4.08,2.46,4.08,3.36Zm-14.15-31.94c.34-1.34,1.71-3.76,2.18-4.14,.56-.25,1.2-.07,1.73,.5,.68,.73-1.85,6.66-1.85,6.66,0,0-1.56,1.4-2.07,.56s-.34-2.24,0-3.58Zm-3.02,9.84c1.45,0,2.8,1.29,2.46,2.57s-.28,2.4-1.96,2.35c-1.68-.06-2.29-1.12-2.4-2.74-.11-1.62,.73-2.18,1.9-2.18Zm-104.89-42.93c-.74-.68-4.05-2.82-8.08-2.89-3.44-.05-6.1,.73-14.23,.79,0,0,0,1-1.59,1.01l-.9-.18c-1.17-.42-2.05-1.5-2.05-1.5h-5.54s-.84-2.43,1.85-5.96c5.79-6.01,17.28-10.4,24.92-14.85,7.63-4.45,12.02-9.34,18.04-13.84,4.7-5.54,14.18-19.46,16.61-20.13,2.43-.67,8.89,1.26,14.43,1.34,3.86-.84,4.19-9.4,7.21-10.07,2.68,0,1.86,5.87,2.27,6.54s3.1,2.96,3.1,4.21-6.8,7.29-8.14,9.55-8.89,15.35-11.24,20.55c-2.35,5.2-3.08,9.84-7.11,15.86-2.29,3.27-8.65,10.42-8.65,10.42h0c-.65-.07-1.3-.11-1.94-.11-5.37,0-8.11,4.14-10.71,4.14s-2.43-1.29-4.53-1.29-3.47,.06-3.47,.06c0,0,.49-2.98-.25-3.66Zm37.7,74.72l-.03,1.59s3.97,4.31,3.91,5.37c-.06,1.06-.39,2.46-1.23,2.52-2.13,0-34.44-41.29-38.09-46.87-.25-1.8,.21-3.19,2.91-3.47,2.46,0,54.81,13.37,54.81,13.37,1.76,5.29-.97,12.58-.89,15.32,.06,2.01,2.66,3.44,2.66,3.44v13.33s-2.34-3.83-6.29-7.38l-3.13-.02-.34-2.67c-2.82-1.84-6.14-3.19-9.81-3.2-4.05,.14-4.61,6.8-4.47,8.67Zm11.05,14.71c-.17,.84-1.34,2.94-2.52,2.94s-3.19-1.34-3.52-2.52c-.34-1.17,1.34-3.36,3.52-3.52,2.26-.17,2.68,2.27,2.52,3.1Zm1.26,7.38c0-1.03,2.38-3.19,3.44-3.19s6.32,7.69,7.05,7.97c.73,.28,3.78,0,3.78,0,0,0,.28,4.5,.53,5.2,.25,.7,2.07,1.76,2.07,1.76v5.7s-.84,1.76-2.1,1.68c-1.26-.08-14.77-18.09-14.77-19.13Zm13,50.14c-1.45,.11-3.8-2.35-3.8-5.48s3.58-8.39,5.82-8.39,3.13,3.69,3.13,7.16c0,5.03-3.69,6.6-5.15,6.71Zm-16.55-135.12c0,5.93,11.05,24.39,11.05,24.39h0l-52.02-11.79,.02-.06s-.78-3.75,.69-4.75c1.37-.93,7.24,5.72,8.37,3.8,1.22-2.08-6.68-6.71-6.68-6.71l1.68-.92s4.73,3.94,10.93,3.94,9.68-2.71,9.68-9.68c0-.36-.03-.69-.05-1.03h0l4.47-3.78s-.06-2.35,.34-3.58c9.34-7.72,23.69-29.19,23.69-29.19,0,0,.48-3.36,1.26-5.48,1.25-2.07,7.05-9.51,9.28-7.49,1.23,1.68-3.13,2.13-3.13,5.93,.39,3.64,7.55,2.68,11.75,4.56,5.03,2.04,7.66,4.78,9.62,9.31-.06,5.29-40.07,19.3-40.94,32.55Zm55.01,124.4c0,.31,.02,.62,.02,.94l-7.16,.28s-2.13,0-2.13-2.24c-.05-2.01,3.58-3.24,3.58-3.24,1.57-3.58-1.23-17.56,1.08-22.18,1.49-3.42,8.53-6.19,11.69-7.29-4.48,9.86-7.1,21.16-7.1,33.74Zm7.41-52.7c-.11-1.45,1.57-.89,1.68-2.35,.11-1.45-5.82-7.16-5.93-10.07-.11-2.91,2.8-4.14,4.03-4.14,.96,0,10.36,9.8,14.45,14.11-2.76,2.86-5.33,5.98-7.66,9.32-1.7-1.46-6.47-5.68-6.56-6.87Zm5.18,51.58c0-16.46,5.89-32.31,16.41-44.24,9.04,12.92,26.09,37.59,26.18,39.97,.08,2.46-2.35,4.25-2.35,4.25l-40.2,1.58c-.01-.52-.04-1.04-.04-1.56Zm62.58,63.76c-34.68,0-59.02-25.89-62.22-56.81,17.7-.78,41.22-1.38,42.64-.53,1.93,4.78,7.47,12.16,18.2,12.25,10.23-.25,20.65-7.13,20.64-19.25-.01-14.68-12.98-15.98-12.98-15.98-.07-2.27-1.16-5.58-5.65-5.62-5.12-.13-6.33,2.81-6.92,4.87-1.16,.66-18.6-20.81-30.43-35.62,10.09-7.46,22.79-11.99,37.54-11.99,37.75,0,62.08,32.05,62.08,64.26s-25.67,64.43-62.92,64.43Z"/></svg>