<?xml version="1.0" encoding="UTF-8"?><svg id="Layer_1" xmlns="http://www.w3.org/2000/svg" viewBox="0 0 500 500"><g id="Camping"><path id="Tent" style="fill:#fdfdfd" d="M94.17,370.71s49.43-117.61,53.52-121.87c4.09-4.26,51.3-32.04,51.3-32.04l-9.37,104.99c-.45,6.08,3.81,10.74,9.37,10.74h100.22c7.27,0,12.39-5.8,11.76-12.1l-10.57-103.63s45.68,25.57,50.11,30.17c4.43,4.6,54.71,123.74,54.71,123.74H94.17Z"/><path id="Canopy" style="fill:#fdfdfd" d="M63.83,347.59c55.22-92.61,110.79-225.67,186.8-225.67s134.99,146.7,184.53,225.67v-8.18h14.2l.09,38.63h-14.29v-7.87s-68.59-120.19-76.08-129.05c-50.67-30.28-91.4-65.39-109.47-65.56-20.11,0-65.11,38.63-110.11,65.56-6.48,5.8-75.68,130.32-75.68,130.32v6.6h-13.29v-38.63h13.29v8.18Z"/></g></svg>