<?xml version="1.0" encoding="UTF-8"?><svg id="Layer_1" xmlns="http://www.w3.org/2000/svg" viewBox="0 0 500 500"><g id="Hiking"><path style="fill:#fdfdfd" d="M230.75,51.37c-12.68,3.1-12.43,2.94-14.18,8.33-2.35,7.14-3.6,14.12-3.88,21.91-.16,3.88-.09,5.04,.34,6.54,.31,1,.44,1.91,.34,2.03-.13,.09-1.56,.19-3.22,.22-2.47,.03-3.41,.19-5.1,.85-4.54,1.75-5.57,2.94-8.23,9.8-4.13,10.58-13.15,36.87-23.47,68.3-5.73,17.37-6.57,20.38-6.35,22.47,.28,2.75,4.57,11.02,6.92,13.4,1.25,1.22,4.16,2.66,8.08,3.91,2.66,.85,4.48,1.22,10.05,2.13l1.53,.25-1.13,1.44c-3.79,4.98-6.79,13.4-7.42,20.78-.53,6.48-.28,9.67,1.03,14.08,2.03,6.73,2.28,9.39,2.25,22.54-.06,17.9-1,28.86-3.26,37.56-1.13,4.32-4.38,14.08-6.67,20.03-2.41,6.32-3.22,9.86-4.63,20.44-1.35,10.14-2.79,18.47-3.6,20.97-.72,2.1-1.13,2.79-2.97,5.07-2.47,3.07-6.39,9.14-8.17,12.74-1.78,3.54-2.16,5.51-1.5,7.92,.69,2.6,8.64,9.64,13.27,11.77,1,.47,2.22,1.35,2.94,2.16,1.22,1.41,3.66,5.13,3.47,5.32-.44,.41-7.39,3.6-7.86,3.6-.31,0-1.38-.34-2.38-.75-2.69-1.13-5.07-1.38-14.3-1.6-4.63-.09-9.42-.34-10.64-.53-1.25-.19-4.48-1.19-7.48-2.35-9.95-3.79-10.77-3.63-15.15,2.82-5.23,7.67-7.48,14.08-8.08,22.82-.28,4.26-.13,4.54,3.22,5.82,4.63,1.75,14.02,4.23,20.6,5.41,5.35,.94,6.73,.75,33.65-4.57,9.05-1.78,18.5-3.54,21.03-3.91s5.63-1,6.89-1.44c4.19-1.41,6.23-.91,9.98,2.57,1.28,1.16,2.94,2.38,3.72,2.72,2.1,.94,6.2,.59,13.49-1.16,8.89-2.13,9.92-2.22,16.4-1.44,3.72,.47,6.73,.66,9.42,.56l3.94-.09,1-1.1c.56-.63,1.47-2.25,2.03-3.6,4.76-11.55,13.74-28.2,14.49-26.89,.09,.16,0,.91-.22,1.69s-.72,2.54-1.1,3.91c-.63,2.16-.72,3.29-.75,7.98-.03,4.6,.06,5.76,.56,7.17,1.03,2.97,3.32,4.76,9.26,7.29,4.13,1.75,9.14,4.32,12.43,6.42,7.07,4.48,6.79,4.48,21.69-1.78,12.61-5.32,15.4-6.2,26.51-8.48,10.58-2.16,10.61-2.16,10.55-5.73-.03-2.5-1.16-6.98-3.57-14.37-1.97-5.98-3.79-9.73-6.39-13.15-2.41-3.22-4.16-6.26-4.44-7.67-.31-1.56,.28-1.19,1.25,.78,1.13,2.32,2.85,4.73,6.45,9.01,5.88,7.04,9.3,13.05,13.93,24.41,4.35,10.7,5.38,12.21,8.64,12.83,2.25,.41,14.84-3.1,19.88-5.54,2.66-1.28,3.1-2.16,2.85-5.57-.31-4.1-3.69-19.19-6.01-26.76-1.31-4.38-2.94-8.2-3.98-9.52-2.5-3.19-25.42-19.75-27.29-19.75-1.31,0-5.54,3.16-13.49,10.02-2.03,1.78-3.38,2.5-3.82,2.1-.25-.28,.5-2,1.75-3.98,2.38-3.76,10.45-21.22,11.36-24.51l.38-1.47-2.47-2.54c-2.82-2.85-9.36-8.23-11.58-9.52-1.97-1.16-3.47-.97-9.08,1.13-3.38,1.25-4.79,1.63-6.1,1.63-2,0-5.95-1.03-8.39-2.19l-1.69-.81,.16-1.47c.09-.81,1.44-6.89,3-13.49s4.44-19.22,6.45-27.98c6.51-28.76,17.43-71.71,20.72-81.54,1.03-3.1,6.23-20.5,7.92-26.45,1.63-5.73,2.25-7.04,4.54-9.2,3.35-3.22,3.98-5.76,3.69-14.9-.22-7.14-.25-6.92,3.26-18.31,4.41-14.4,4.85-16.81,3.54-18.97-.94-1.47-3.1-2.44-4.95-2.19-3.04,.41-3.88,2.16-8.33,16.96-1.53,5.07-3.51,10.08-4.73,12.02-1,1.6-2.79,2.47-5.41,2.72-3.54,.28-3.85,.53-6.76,5.2-2.41,3.82-4.95,3.98-8.39,.47-2.54-2.57-2.91-2.75-5.51-2.75-1.63,0-3.57,.31-6.54,1.1-6.32,1.63-8.83,1.5-12.05-.72-5.04-3.38-8.36-6.45-10.49-9.64-.91-1.41-3.04-4.13-4.73-6.04-7.14-8.2-8.2-9.55-8.7-10.89-.97-2.5,0-3.1,5.6-3.54,5.76-.44,8.26-1.56,9.23-4.23,.19-.53,.5-2.03,.72-3.38s.59-2.72,.88-3.07c.28-.31,1.35-.91,2.38-1.31l1.88-.72,.19-3.44c.28-4.95,.88-6.64,3.07-9.05,.97-1.03,1.25-1.72,1.72-3.91,.47-2.13,.78-2.82,1.5-3.51,.53-.47,1.13-.88,1.38-.88,.72,0,1.69-1.19,1.69-2.03,0-1.38-1.25-3.35-3.6-5.67-2.54-2.54-5.6-4.48-9.05-5.76-1.31-.47-2.97-1.25-3.76-1.69-1.5-.88-3.32-2.85-3.32-3.63,0-.25-.66-1.53-1.41-2.82-1.6-2.6-1.63-3.04-1.03-7.82,.34-2.97,.34-3-.5-4.85-.47-1.03-1.16-2.22-1.53-2.6-1.5-1.63-8.33-4.51-17.65-7.42-5.88-1.88-24.73-7.36-25.07-7.32-.13,0-3.54,.81-7.57,1.82Zm104.54,136.15c.16,.34,.31,1.1,.31,1.66,0,1.78-1.72,9.52-4.38,19.53-1.41,5.32-4.13,15.81-6.1,23.29-5.01,19.12-6.35,23.91-9.05,31.93-5.13,15.43-11.77,41.97-17.25,68.86-.94,4.57-1.91,8.86-2.13,9.55l-.47,1.25-.38-1.41c-.19-.78-.53-1.63-.72-1.91-.59-.78-2.13-1.47-4.63-2.03-5.01-1.13-5.48-1.75-11.08-15.18l-2.41-5.82,5.23-9.05c2.88-4.98,7.45-12.49,10.11-16.71,9.01-14.21,10.52-16.71,13.21-22.07,3.29-6.51,4.1-8.86,4.32-12.39,.16-3-.56-6.54-1.97-9.61-1.47-3.19-1.91-3.57-6.79-5.7-2.47-1.06-10.74-5.01-18.4-8.76-14.71-7.23-20.56-9.83-24.6-10.95-2.88-.81-4.82-1.53-4.82-1.85,0-.44,2.22-4.44,3.91-7.01,.97-1.53,2.5-4.35,3.35-6.26,.85-1.94,2.1-4.82,2.82-6.39,2.13-4.79,3.57-6.07,8.33-7.26,3.35-.88,4.88-.81,10.17,.25,4.98,1.03,8.48,1.47,13.43,1.75,4.13,.22,5.26,.59,8.26,2.85,3.07,2.25,4.01,2.63,6.6,2.63,3.16,0,8.67-.81,10.17-1.5,1.69-.75,2.38-1.53,4.04-4.44,2.38-4.26,3.69-5.51,7.48-7.07,2.13-.91,3-.94,3.44-.16Zm-89.36,77.65c9.86,1.13,21.28,4.1,24.51,6.45,.06,.03-.88,2.03-2.07,4.41-1.19,2.38-4.41,9.45-7.11,15.74-2.72,6.29-5.1,11.83-5.35,12.36-.22,.5-2.07,2.94-4.1,5.38-5.79,6.92-8.01,11.33-8.04,15.9,0,2.13,.13,2.75,.88,4.29,.5,1,1.85,2.82,3.04,4.1,3.69,4.01,6.95,6.13,10.42,6.76,2.44,.44,4.32,1.91,8.83,6.89l3.54,3.91-2.69,3.91c-1.47,2.16-2.97,4.29-3.35,4.66-1.19,1.31-3.07,2.19-9.26,4.29-3.35,1.16-6.48,2.28-6.95,2.54-1.63,.85-1.66,1.03-1.75,12.8-.06,6.01-.19,11.05-.31,11.17s-2.13,.81-4.44,1.5c-4.66,1.44-6.51,2.35-7.39,3.66-.31,.47-1.75,3.07-3.19,5.73-3.22,5.98-7.07,11.89-7.73,11.89-.28,0-2.19-.5-4.26-1.1s-5.04-1.25-6.64-1.44c-3.38-.38-3.54-.5-5.35-3.91-2.07-3.91-4.04-4.98-10.23-5.6l-2.03-.19-1.03-4.29c-.59-2.35-1.53-5.92-2.13-7.89-1.06-3.51-1.06-3.66-.72-5.95,1.35-8.7,7.26-28.39,11.02-36.75,.88-1.91,2.97-6.98,4.69-11.3,3.76-9.33,5.67-13.21,8.8-17.9,2.75-4.1,3.32-5.45,4.95-12.3,1.28-5.29,2.44-8.48,6.07-16.9,1.16-2.66,2.85-6.89,3.79-9.36,2.79-7.42,5.01-10.86,8.23-12.93,1.6-1,2.72-1.06,7.39-.56Z"/></g></svg>