<svg id="Layer_1" data-name="Layer 1" xmlns="http://www.w3.org/2000/svg" viewBox="0 0 500 500"><g id="Photography_Inverted" style="fill:#fdfdfd" data-name="Photography Inverted"><polygon id="Left_Band" data-name="Left Band" points="54.86 228.06 54.86 223.78 189.07 223.78 188.09 228.06 54.86 228.06"/><polygon id="Right_Band" data-name="Right Band" points="443.58 228.06 347.34 228.06 346.36 223.78 443.58 223.78 443.58 228.06"/><circle id="Dot" cx="367.37" cy="325.51" r="7.14"/><path id="Main" d="M342.25,344.81H443.58v-3.42H344.65a92.57,92.57,0,0,0,1-101.08h0l-7.22-28H317.76a91.22,91.22,0,0,0-14-7.45h32.73l-5.19-22.35H204.58l-5.38,22.35h32.24a91.11,91.11,0,0,0-14,7.45H197l-6.45,26.43h0a92.57,92.57,0,0,0-.05,102.66H54.86v3.42H192.93a93.09,93.09,0,0,0,15.24,16.24H54.86v8.63c0,2.9,1,4.44,3.71,4.44H228.73a92.61,92.61,0,0,0,77.73,0h133.2a4.08,4.08,0,0,0,3.92-3.76v-9.31H327A92.72,92.72,0,0,0,342.25,344.81ZM86.12,370.7a.89.89,0,0,1-.89.89H84a.89.89,0,0,1-.89-.89v-6.58a.89.89,0,0,1,.89-.89h1.28a.89.89,0,0,1,.89.89Zm326.55-6.58a.89.89,0,0,1,.89-.89h1.77a.89.89,0,0,1,.89.89v6.58a.89.89,0,0,1-.89.89h-1.77a.89.89,0,0,1-.89-.89Zm-145.08,4.35A78.37,78.37,0,1,1,346,290.1,78.37,78.37,0,0,1,267.59,368.47Z"/><path id="Top_Left" data-name="Top Left" d="M193.35,168.71v-4.43s1.55-.11,1.55-1.56V150.08a1.4,1.4,0,0,0-1.4-1.4H141.84v-6.84H122.55v6.66h-2.39a2.16,2.16,0,0,0-2.26,2.26v2.68h-45a.88.88,0,0,0-.88.89l0,5.46-3.53,0a.88.88,0,0,0-.9.88v8.12h-9a3.78,3.78,0,0,0-3.67,3.68v10.78a11.39,11.39,0,0,0,0,18.71v6.46h137.9l9.75-39.69ZM59.74,198.38c-1.75,0-3.18-2.51-3.18-5.61s1.43-5.62,3.18-5.62,3.17,2.51,3.17,5.62S61.49,198.38,59.74,198.38Zm26.38,4.74a.89.89,0,0,1-.89.88H84a.89.89,0,0,1-.89-.88V178.39a.89.89,0,0,1,.89-.89h1.28a.89.89,0,0,1,.89.89ZM116,168.83H72.2V165a.9.9,0,0,1,.9-.91h42a.91.91,0,0,1,.91.91Zm26.38,0H121.53V165a.91.91,0,0,1,.91-.91h19.07a.91.91,0,0,1,.91.91Zm0-10.13a.91.91,0,0,1-.91.91H122.44a.91.91,0,0,1-.91-.91V155a.91.91,0,0,1,.91-.91h19.07a.91.91,0,0,1,.91.91Zm8.06,1.79a.58.58,0,0,1-.59.58h-1.64a.58.58,0,0,1-.58-.58v-7.14a.58.58,0,0,1,.58-.58h1.64a.58.58,0,0,1,.59.58Zm6.22,0a.58.58,0,0,1-.58.58h-1.64a.58.58,0,0,1-.58-.58v-7.14a.58.58,0,0,1,.58-.58h1.64a.58.58,0,0,1,.58.58Zm6.48-.06a.58.58,0,0,1-.59.58H161a.58.58,0,0,1-.58-.58v-7.14a.58.58,0,0,1,.58-.58h1.64a.58.58,0,0,1,.59.58Zm6.84,0a.58.58,0,0,1-.59.58h-1.64a.58.58,0,0,1-.58-.58v-7.14a.58.58,0,0,1,.58-.58h1.64a.58.58,0,0,1,.59.58Zm6.47.06a.58.58,0,0,1-.58.58h-1.65a.58.58,0,0,1-.58-.58v-7.14a.58.58,0,0,1,.58-.58h1.65a.58.58,0,0,1,.58.58Zm6.35-.06a.58.58,0,0,1-.58.58h-1.65a.58.58,0,0,1-.58-.58v-7.14a.58.58,0,0,1,.58-.58h1.65a.58.58,0,0,1,.58.58Zm6.84.06a.58.58,0,0,1-.58.58h-1.65a.58.58,0,0,1-.58-.58v-7.14a.58.58,0,0,1,.58-.58h1.65a.58.58,0,0,1,.58.58Z"/><path id="Top_Right" data-name="Top Right" d="M443.57,182.33V172c0-1.77-.92-3.21-2.91-3.21h-9.18l-4.88-7.88H422v-3.42h2.13v-4.65c0-2.66-.49-4.14-3.11-4.14h-5.5v6.11h-7.2v-6.11H371.52a3.78,3.78,0,0,0-3.54,4v4.88h2.32V161h-4.4l-4.76,7.76h-27.8l9.11,39.63H443.57v-5.57a11.4,11.4,0,0,0,0-20.5Zm-27.35,20.79a.89.89,0,0,1-.89.88h-1.77a.89.89,0,0,1-.89-.88V178.39a.89.89,0,0,1,.89-.89h1.77a.89.89,0,0,1,.89.89Zm24-4.74c-1.75,0-3.17-2.51-3.17-5.61s1.42-5.62,3.17-5.62,3.18,2.51,3.18,5.62S442,198.38,440.27,198.38Z"/><polygon id="Prisim" points="211.59 153.24 250.59 117.29 284.38 117.29 325.07 153.76 330.06 177.5 205.62 177.5 211.59 153.24"/></g></svg>