<?xml version="1.0" encoding="UTF-8"?><svg id="Layer_1" xmlns="http://www.w3.org/2000/svg" viewBox="0 0 500 500"><g id="Photography"><rect id="Left_Post" style="fill:#fdfdfd" x="83.08" y="177.52" width="3.05" height="26.5" rx=".89" ry=".89"/><rect id="Right_Post" style="fill:#fdfdfd" x="412.69" y="177.52" width="3.54" height="26.5" rx=".89" ry=".89"/><circle id="Lens_Center" style="fill:#fdfdfd" cx="267.61" cy="290.12" r="54.22"/><path id="Lens_Mid" style="fill:#fdfdfd" d="M267.61,221.24c-38.04,0-68.88,30.84-68.88,68.88s30.84,68.88,68.88,68.88,68.88-30.84,68.88-68.88-30.84-68.88-68.88-68.88Zm0,126.77c-31.97,0-57.89-25.92-57.89-57.89s25.92-57.89,57.89-57.89,57.89,25.92,57.89,57.89-25.92,57.89-57.89,57.89Z"/><path style="fill:#fdfdfd" d="M450,192.6c0-4.51-2.62-8.39-6.41-10.25v-10.35c0-1.77-.92-3.21-2.91-3.21h-9.18l-4.88-7.88h-4.64v-3.42h2.14v-4.66c0-2.66-.49-4.14-3.11-4.14h-5.5v6.11h-7.21v-6.11h-36.76c-2.02,0-3.54,1.83-3.54,4.03v4.88h2.32v3.42h-4.4l-4.76,7.75h-27.8l-1.62-7.08-47.34-44.39h-33.8l-46.31,43.61-1.78,7.81h-9.19v-4.43s1.56-.11,1.56-1.56v-12.64c0-.85-.7-1.4-1.4-1.4h-51.66v-6.84h-19.3v6.66h-2.38c-1.37,0-2.26,.98-2.26,2.26v2.69h-45.04c-.49,0-.89,.4-.89,.89l.03,5.46-3.54-.02c-.49,0-.89,.39-.89,.89v8.11h-9.01c-2.05,0-3.67,1.82-3.67,3.68v10.78c-2.95,2.06-4.88,5.48-4.88,9.36s1.93,7.29,4.88,9.36v6.46h-1.13c-.49,0-.89,.4-.89,.89v13.62c0,.49,.4,.89,.89,.89h1.13v121.03h-1.13c-.49,0-.89,.4-.89,.89v14.47c0,.49,.4,.89,.89,.89h1.13v8.63c0,2.89,1.04,4.44,3.71,4.44H228.76c11.82,5.47,24.97,8.55,38.85,8.55s27.03-3.08,38.85-8.55h133.21c1.97,0,3.92-1.83,3.92-3.76v-9.31h1.5c.49,0,.89-.4,.89-.88v-14.47c0-.49-.4-.89-.89-.89h-1.5v-120.78h1.5c.49,0,.89-.4,.89-.89v-13.37c0-.49-.4-.89-.89-.89h-1.5v-6.05c3.79-1.86,6.41-5.74,6.41-10.25Zm-241.65-29.13l44.6-41.27h29.8l44.32,41.33,2.94,13.99h-124.45l2.78-14.05Zm-3.76,19.06h126.7l5.19,22.35h-32.73c-11.11-4.72-23.32-7.33-36.15-7.33s-25.04,2.61-36.15,7.33h-32.24l5.37-22.35Zm133.85,29.8l5.37,24.91h-.24c-6.9-9.89-15.67-18.36-25.82-24.91h20.69Zm-120.98,0c-9.89,6.39-18.49,14.61-25.3,24.19l4.86-24.19h20.44Zm-29.75-59.6h1.64c.32,0,.58,.26,.58,.58v7.14c0,.32-.26,.58-.58,.58h-1.64c-.32,0-.58-.26-.58-.58v-7.14c0-.32,.26-.58,.58-.58Zm-6.84-.06h1.64c.32,0,.58,.26,.58,.58v7.14c0,.32-.26,.58-.58,.58h-1.64c-.32,0-.58-.26-.58-.58v-7.14c0-.32,.26-.58,.58-.58Zm-6.35,.06h1.64c.32,0,.58,.26,.58,.58v7.14c0,.32-.26,.58-.58,.58h-1.64c-.32,0-.58-.26-.58-.58v-7.14c0-.32,.26-.58,.58-.58Zm-6.47-.06h1.64c.32,0,.58,.26,.58,.58v7.14c0,.32-.26,.58-.58,.58h-1.64c-.32,0-.58-.26-.58-.58v-7.14c0-.32,.26-.58,.58-.58Zm-6.84,0h1.64c.32,0,.58,.26,.58,.58v7.14c0,.32-.26,.58-.58,.58h-1.64c-.32,0-.58-.26-.58-.58v-7.14c0-.32,.26-.58,.58-.58Zm-6.47,.06h1.64c.32,0,.58,.26,.58,.58v7.14c0,.32-.26,.58-.58,.58h-1.64c-.32,0-.58-.26-.58-.58v-7.14c0-.32,.26-.58,.58-.58Zm-6.23,0h1.64c.32,0,.58,.26,.58,.58v7.14c0,.32-.26,.58-.58,.58h-1.64c-.32,0-.58-.26-.58-.58v-7.14c0-.32,.26-.58,.58-.58Zm-25.81,1.34h19.07c.5,0,.91,.41,.91,.91v3.68c0,.5-.41,.91-.91,.91h-19.07c-.5,0-.91-.41-.91-.91v-3.68c0-.5,.41-.91,.91-.91Zm0,10.01h19.07c.5,0,.91,.41,.91,.91v3.79h-20.88v-3.79c0-.5,.41-.91,.91-.91Zm-49.34,0h42.03c.5,0,.91,.41,.91,.91v3.79h-43.84v-3.79c0-.5,.41-.91,.91-.91Zm-12.09,9.4H201.54l-8.73,34.93H60.36v-4.45c.34,.03,.69,.05,1.04,.05,6.31,0,11.42-5.11,11.42-11.42s-5.11-11.42-11.42-11.42c-.35,0-.7,.02-1.04,.05v-6.84c0-.5,.41-.91,.91-.91Zm129.28,167.92c.77,1.16,1.58,2.3,2.4,3.42H60.36v-3.42H190.55Zm-107.47-4.43v-105.33c0-.49,.4-.89,.89-.89h1.28c.49,0,.89,.4,.89,.89v105.33c0,.49-.4,.89-.89,.89h-1.28c-.49,0-.89-.4-.89-.89Zm90.69-4h-.91c-.24,0-.48-.1-.64-.29-5.69-6.6-6.55-17.26-6.68-20.35-.02-.47,.36-.86,.83-.86h.88c.45,0,.82,.35,.83,.8,.06,2.62,.7,11.25,6.38,19.4,.38,.54-.03,1.29-.69,1.29Zm9.85-1.31h-1.16c-.28,0-.55-.15-.71-.38-7.09-10.86-7.87-21.26-7.94-24.24-.01-.47,.37-.84,.83-.84h1.18c.45,0,.82,.36,.83,.81,.09,2.77,.93,12.31,7.67,23.38,.34,.56-.05,1.27-.7,1.27Zm-5.59,.41h-.94c-.28,0-.55-.14-.7-.37-5.98-8.96-6.65-18.94-6.71-21.86,0-.46,.37-.84,.83-.84h.92c.45,0,.81,.35,.83,.79,.13,2.76,.96,12.26,6.46,21,.35,.56-.03,1.29-.69,1.29ZM60.36,228.08v-4.27H189.08l-.98,4.27H60.36Zm22.72-8.21v-7.27c0-.49,.4-.89,.89-.89h1.28c.49,0,.89,.4,.89,.89v7.27c0,.49-.4,.89-.89,.89h-1.28c-.49,0-.89-.4-.89-.89Zm-26.5-27.08c0-3.1,1.42-5.62,3.18-5.62s3.18,2.52,3.18,5.62-1.42,5.62-3.18,5.62-3.18-2.52-3.18-5.62Zm29.55,175.71v-3.66c0-.49-.4-.89-.89-.89h-1.28c-.49,0-.89,.4-.89,.89v3.66h-21.81c-.5,0-.91-.41-.91-.91v-6.51H208.18c3.22,2.7,6.63,5.17,10.19,7.42H86.13Zm181.48,.27c-43.44,0-78.65-35.21-78.65-78.65s35.21-78.65,78.65-78.65,78.65,35.21,78.65,78.65-35.21,78.65-78.65,78.65Zm169.82-.27h-21.2v-3.91c0-.49-.4-.89-.89-.89h-1.77c-.49,0-.89,.4-.89,.89v3.91h-95.84c3.57-2.25,6.98-4.72,10.19-7.42h111.3v6.51c0,.5-.41,.91-.91,.91Zm.91-23.66h-96.07c.82-1.12,1.63-2.26,2.4-3.42h93.67v3.42Zm-78.1-19.3c0-3.95,3.2-7.14,7.14-7.14s7.14,3.2,7.14,7.14-3.2,7.14-7.14,7.14-7.14-3.2-7.14-7.14Zm52.45,11.45v-105.33c0-.49,.4-.89,.89-.89h1.77c.49,0,.89,.4,.89,.89v105.33c0,.49-.4,.89-.89,.89h-1.77c-.49,0-.89-.4-.89-.89Zm25.65-108.9h-91.11l-.86-4.27h91.96v4.27Zm-25.65-8.21v-7.27c0-.49,.4-.89,.89-.89h1.77c.49,0,.89,.4,.89,.89v7.27c0,.49-.4,.89-.89,.89h-1.77c-.49,0-.89-.4-.89-.89Zm25.65-11.45h-95.87l-8.18-34.93h103.14c.5,0,.91,.41,.91,.91v6.8c-6.19,.13-11.17,5.18-11.17,11.41s4.98,11.28,11.17,11.41v4.41Zm1.95-10.01c-1.75,0-3.18-2.52-3.18-5.62s1.42-5.62,3.18-5.62,3.18,2.52,3.18,5.62-1.42,5.62-3.18,5.62Z"/></g></svg>