<?xml version="1.0" encoding="UTF-8"?><svg id="Layer_1" xmlns="http://www.w3.org/2000/svg" viewBox="0 0 500 500"><path id="Running" style="fill:#fdfdfd" d="M134.33,449.74c2.04-2.32,1.83-4.95,1.3-7.62-.69-3.48-1.66-6.94-2.01-10.45-.22-2.24,.03-4.75,.85-6.83,1.03-2.64,2.85-4.97,4.34-7.45,1.14,.2,1.97,.34,2.76,.48,1.47-1.23,1.01-2.7,.82-4.1-.4-2.94,.02-3.64,2.8-4.78,1.44-.59,2.91-1.14,4.24-1.91,2.22-1.28,2.84-2.82,1.44-4.97-1.86-2.88-1.32-5.11,.74-7.5,.84-.97,1.51-2.27,1.77-3.51,.5-2.36,1.84-3.97,3.72-5.29,10.55-7.43,21.13-14.81,31.61-22.33,11.17-8.01,23.43-14.04,35.67-20.15,7.22-3.6,13.53-8.36,18.95-14.47,6.2-6.99,12.86-13.56,19.35-20.28,5.34-5.52,10.71-10.99,15.2-17.27,2.59-3.63,3.53-3.74,7.97-2.4,1.69,.51,3.43,1,5.18,1.17,1,.1,2.38-.14,3.03-.79,1.77-1.77,3.45-1.43,5.47-.64,4.55,1.77,9.12,3.55,13.77,5.02,7,2.21,14.17,3.67,21.45,4.69,2.84,.4,5.64,1.29,8.35,2.26,1.49,.54,2.74,1.72,4.3,2.74-.9,1.38-1.51,2.41-2.21,3.39-3.23,4.52-6.81,8.84-9.65,13.59-3.6,6.02-6.1,12.59-7.53,19.51-1.22,5.89-2.78,11.67-5.36,17.13-1.94,4.11-3.64,8.32-7.32,11.37-1.31,1.08-2.02,2.89-2.98,4.38-1.41,2.18-3,4.12-5.63,4.98-.81,.26-1.66,.78-2.22,1.42-2.33,2.68-4.85,5.27-6.76,8.24-1.91,2.97-3.3,6.29-4.68,9.56-1.21,2.89-.69,4.27,1.81,5.99,8.43,5.8,16.85,11.61,25.32,17.34,6.8,4.6,14.28,7.75,22.3,9.38,4.98,1.01,9.48-.72,13.22-4.06,2.23-2,1.98-4.33-.33-6.27-.68-.57-1.44-1.05-2.2-1.51-4.87-2.94-8.51-6.91-11.38-11.89-2.41-4.19-3.95-8.67-5.75-13.06-.36-.88-.08-2.19,.27-3.16,.91-2.54,1.25-4.89-.54-7.25-.55-.72-.73-1.88-.73-2.83-.02-4.03,.78-7.81,2.56-11.57,4.15-8.75,10.59-15.91,15.91-23.84,3.34-4.98,6.54-10.07,10.06-14.93,2.86-3.96,6.06-7.68,9.18-11.45,4.11-4.97,7.09-10.6,8.67-16.77,1.85-7.22,.02-13.98-4.73-19.63-2.77-3.3-6.05-6.25-9.44-8.93-9-7.09-18.06-14.11-27.33-20.82-6.13-4.44-12.91-7.85-20.18-10.17-.42-.14-.86-.24-1.27-.42-4.36-1.83-5.06-3.89-3.78-8.44,1.56-5.51,5.18-9.76,8.03-14.49,2.57-4.29,5.13-8.58,7.7-12.88,.73-1.23,1.47-2.45,2.31-3.84,1.97,0,3.85,0,5.73,0,7.01,0,14.03-.12,21.04,.07,3.76,.1,7.52,.64,11.25,1.16,4.07,.57,8.09,1.48,12.16,2,1.59,.2,3.3-.12,4.9-.48,.79-.17,1.8-.8,2.09-1.49,1.89-4.4,3.75-8.83,1.92-13.79-1.66-4.49-5.37-6.91-10.15-6.31-3.09,.39-6.03,1.18-8.89,2.64-4.71,2.4-9.56,2.88-14.16-.52-2.58-1.91-5.23-3.75-7.72-5.79-1.8-1.47-2.62-3.28-2.15-5.88,.53-2.92,.45-5.99,.4-8.99-.11-6.37,.49-12.66,1.85-18.87,1.13-5.18,.72-10.42,.6-15.64-.05-2.44-1.49-4.12-3.59-5.25-2.26-1.2-4.57-2.31-6.76-3.62-1.28-.77-2.37-1.86-3.46-2.73,.64-1.91,2-2.17,3.29-2.45,.87-.19,1.78-.15,2.65-.33,3.15-.67,4.42-1.98,4.6-5.22,.28-4.95,2.71-9.12,4.68-13.45,.4-.89,1.58-1.48,2.5-2.06,1.21-.76,1.72-1.69,1.22-3.07-1.81-4.95-2.71-9.98-2.41-15.31,.13-2.23-.76-4.6-1.51-6.79-.74-2.14-1.24-4.25-1.14-6.51,.13-2.86-1.2-4.95-3.69-6.21-1.88-.95-3.86-1.69-5.81-2.49-2.77-1.14-5.55-2.23-8.32-3.37-2.58-1.06-5.25-.85-7.87-.34-2.16,.42-4.26,1.13-6.4,1.69-1.18,.31-2.38,.54-3.56,.85-6.73,1.77-10.87,6.14-12.84,12.74-2.69,9.03-1.25,17.58,2.86,25.84,.99,1.98,2.03,3.96,2.8,6.03,.9,2.39,.57,3.15-1.53,4.42-4.18,2.53-8.34,5.11-12.61,7.49-1.41,.78-3.09,1.19-4.71,1.46-2.52,.41-5.15,.28-7.61,.88-3.57,.86-7.04,2.14-9.67,4.95-2.45,2.63-5.61,3.42-9.05,3.57-3.78,.16-7.56,.31-11.32,.63-1.4,.12-2.79,.67-4.15,1.11-2.42,.79-4.76,1.89-7.23,2.43-6.95,1.55-13.09,4.86-19.11,8.45-2.38,1.42-3.63,3.58-3.47,6.39,.1,1.76,.35,3.53,.61,5.28,.84,5.6,1.9,11.17,2.52,16.8,.71,6.5,2.99,12.5,5.27,18.52,1.21,3.2,2.8,6.27,3.94,9.5,1.6,4.55,1.31,9.16-.08,13.75-.45,1.47-.79,3-.96,4.52-.44,3.98-.72,7.98-1.15,11.96-.31,2.87,.47,4.74,3.38,6.03,4.5,2,8.86,4.14,13.95,3.87,2.7-.15,3.49-.56,3.93-3.12,.82-4.69,2.11-9.33,1.85-14.18-.16-2.94-.98-5.59-2.21-8.29-1.22-2.67-2.12-5.66-2.35-8.58-.5-6.23-1.72-12.3-2.97-18.39-.92-4.48-1.23-9-.64-13.59,.55-4.3,.86-8.63,1.3-12.94,.07-.64,.27-1.27,.48-2.2,1.24,0,2.49-.29,3.54,.05,5.38,1.73,10.74,1.26,16.14,.19,1.61-.32,3.27-.37,5.02-.56,1.87,5.59,3.94,10.69,3.36,16.65-.69,7.07-.55,14.23-.64,21.35-.09,6.48-.8,12.85-2.6,19.1-.52,1.8-.76,3.71-.86,5.58-.1,1.83-.87,3.12-2.2,4.28-2.18,1.9-4.35,3.82-6.39,5.86-7.24,7.22-12.17,15.83-15.01,25.62-.83,2.87-1.18,5.87-1.86,8.79-.63,2.69-1.32,5.38-2.16,8.01-.9,2.81-.43,5.49,.54,8.46-.55,.64-1.11,1.46-1.82,2.11-11.72,10.8-20.28,23.85-26.85,38.24-2.1,4.61-5.09,7.97-9.72,9.99-4.79,2.09-9.42,4.57-14.29,6.41-11.08,4.19-19.27,11.8-25.87,21.29-4.96,7.13-10.05,14.15-15.93,20.56-2.48,2.7-4.8,5.56-8.44,6.85-.71,.25-1.32,.83-1.91,1.33-1.33,1.14-2.86,1.37-4.59,1.57-7.38,.84-14.83,1.34-22.01,3.45-2.69,.79-3.3,1.34-3.34,4.2-.04,2.54,.16,5.12,.64,7.61,.79,4.14,2.03,8.2,2.82,12.34,.98,5.12,1.81,10.28,2.48,15.45,1.11,8.55,5.23,15.49,11.14,21.51,1.4,1.43,2.97,2.68,4.45,4.04,1.5,1.38,3.17,2.02,5.45,1.21Z"/></svg>